<svg width="24" height="24" viewBox="0 0 24 24" fill="none" xmlns="http://www.w3.org/2000/svg">
<path d="M16.5619 17.8181H22.5215C22.021 11.214 19.1777 7.11208 15.5307 4.68579L17.1912 1.0615C17.2414 0.946501 17.2623 0.820837 17.2519 0.695782C17.2416 0.570727 17.2004 0.450191 17.132 0.344982C17.0636 0.239773 16.9702 0.153181 16.8601 0.0929717C16.75 0.0327618 16.6267 0.000816367 16.5012 0H6.10606C5.98058 0.000816367 5.85727 0.0327618 5.74717 0.0929717C5.63708 0.153181 5.54366 0.239773 5.47527 0.344982C5.40688 0.450191 5.36568 0.570727 5.35535 0.695782C5.34502 0.820837 5.36589 0.946501 5.41608 1.0615L6.32594 3.03287H13.9991L13.3167 4.54931H11.914C12.3424 5.70123 12.6573 6.89222 12.8542 8.10535C12.9817 8.85786 13.0628 9.61752 13.0968 10.38L11.8988 11.2216C11.9021 10.2409 11.8209 9.26171 11.6562 8.2949C11.4467 7.00819 11.0853 5.75087 10.5795 4.54931H9.82133C9.1216 5.43344 8.49284 6.37149 7.94095 7.35471C7.49595 8.19812 7.1182 9.07532 6.8112 9.97815L5.77244 9.28817C6.07565 8.41557 6.44837 7.56871 6.88702 6.75572C7.33025 5.99336 7.81629 5.25671 8.3428 4.54931H7.01592L7.07658 4.6782C3.05802 7.35471 0.00240627 12.0557 0.00240627 19.9032C-0.00783966 20.0682 0.0147029 20.2335 0.0687316 20.3897C0.12276 20.5459 0.207204 20.6899 0.317185 20.8133C0.427165 20.9366 0.560502 21.037 0.709493 21.1085C0.858484 21.1801 1.02018 21.2214 1.18523 21.2301H7.25097C6.99051 20.959 6.81068 20.6208 6.73161 20.2533C6.65254 19.8857 6.67737 19.5035 6.80331 19.1493C6.92925 18.7951 7.15132 18.4829 7.44466 18.2478C7.73799 18.0127 8.09099 17.8639 8.46412 17.8181C8.28253 17.5102 8.18574 17.1596 8.18358 16.8021C8.18358 16.2592 8.39926 15.7384 8.78318 15.3545C9.16711 14.9706 9.68782 14.7549 10.2308 14.7549H14.7801C15.323 14.7549 15.8437 14.9706 16.2276 15.3545C16.6116 15.7384 16.8273 16.2592 16.8273 16.8021C16.8312 17.1584 16.7395 17.5092 16.5619 17.8181Z" fill="#787D87"/>
<path d="M14.0673 19.7137C14.0673 19.5126 13.9875 19.3197 13.8453 19.1775C13.7031 19.0353 13.5102 18.9554 13.3091 18.9554H8.75982C8.55873 18.9554 8.36587 19.0353 8.22368 19.1775C8.08149 19.3197 8.0016 19.5126 8.0016 19.7137C8.0016 19.9148 8.08149 20.1076 8.22368 20.2498C8.36587 20.392 8.55873 20.4719 8.75982 20.4719H13.3091C13.5102 20.4719 13.7031 20.392 13.8453 20.2498C13.9875 20.1076 14.0673 19.9148 14.0673 19.7137Z" fill="#787D87"/>
<path d="M14.7801 15.9226H10.2308C10.0297 15.9226 9.83682 16.0025 9.69462 16.1446C9.55243 16.2868 9.47255 16.4797 9.47255 16.6808C9.47255 16.8819 9.55243 17.0747 9.69462 17.2169C9.83682 17.3591 10.0297 17.439 10.2308 17.439H14.7801C14.9812 17.439 15.174 17.3591 15.3162 17.2169C15.4584 17.0747 15.5383 16.8819 15.5383 16.6808C15.5383 16.4797 15.4584 16.2868 15.3162 16.1446C15.174 16.0025 14.9812 15.9226 14.7801 15.9226Z" fill="#787D87"/>
<path d="M14.3706 21.9883H9.82133C9.62023 21.9883 9.42738 22.0682 9.28519 22.2104C9.14299 22.3526 9.06311 22.5454 9.06311 22.7465C9.06311 22.9476 9.14299 23.1405 9.28519 23.2827C9.42738 23.4249 9.62023 23.5048 9.82133 23.5048H14.3706C14.5717 23.5048 14.7646 23.4249 14.9068 23.2827C15.049 23.1405 15.1289 22.9476 15.1289 22.7465C15.1289 22.5454 15.049 22.3526 14.9068 22.2104C14.7646 22.0682 14.5717 21.9883 14.3706 21.9883Z" fill="#787D87"/>
<path d="M22.4836 21.9883H17.176C16.9749 21.9883 16.7821 22.0682 16.6399 22.2104C16.4977 22.3526 16.4178 22.5454 16.4178 22.7465C16.4178 22.9476 16.4977 23.1405 16.6399 23.2827C16.7821 23.4249 16.9749 23.5048 17.176 23.5048H22.4836C22.6847 23.5048 22.8775 23.4249 23.0197 23.2827C23.1619 23.1405 23.2418 22.9476 23.2418 22.7465C23.2418 22.5454 23.1619 22.3526 23.0197 22.2104C22.8775 22.0682 22.6847 21.9883 22.4836 21.9883Z" fill="#787D87"/>
<path d="M23.2418 18.9554H17.9343C17.7332 18.9554 17.5403 19.0353 17.3981 19.1775C17.2559 19.3197 17.176 19.5126 17.176 19.7137C17.176 19.9148 17.2559 20.1076 17.3981 20.2498C17.5403 20.392 17.7332 20.4719 17.9343 20.4719H23.2418C23.4429 20.4719 23.6357 20.392 23.7779 20.2498C23.9201 20.1076 24 19.9148 24 19.7137C24 19.5126 23.9201 19.3197 23.7779 19.1775C23.6357 19.0353 23.4429 18.9554 23.2418 18.9554Z" fill="#787D87"/>
</svg>
