<svg width="32" height="32" viewBox="0 0 32 32" fill="none" xmlns="http://www.w3.org/2000/svg">
<path d="M16 0C12.8355 0 9.74207 0.938383 7.11088 2.69649C4.4797 4.45459 2.42894 6.95345 1.21793 9.87706C0.0069325 12.8007 -0.309921 16.0177 0.307443 19.1214C0.924806 22.2251 2.44866 25.0761 4.6863 27.3137C6.92394 29.5513 9.77487 31.0752 12.8786 31.6926C15.9823 32.3099 19.1993 31.9931 22.1229 30.7821C25.0466 29.5711 27.5454 27.5203 29.3035 24.8891C31.0616 22.2579 32 19.1645 32 16C32 11.7565 30.3143 7.68687 27.3137 4.68629C24.3131 1.68571 20.2435 0 16 0ZM15.78 25.85C15.4537 25.85 15.1347 25.7532 14.8633 25.5719C14.592 25.3906 14.3805 25.1329 14.2556 24.8314C14.1307 24.5299 14.098 24.1982 14.1617 23.8781C14.2254 23.558 14.3825 23.264 14.6133 23.0333C14.844 22.8025 15.138 22.6454 15.4581 22.5817C15.7782 22.518 16.1099 22.5507 16.4114 22.6756C16.7129 22.8005 16.9706 23.012 17.1519 23.2833C17.3332 23.5547 17.43 23.8737 17.43 24.2C17.43 24.6376 17.2562 25.0573 16.9467 25.3667C16.6373 25.6762 16.2176 25.85 15.78 25.85ZM17.15 17.79V19.51C17.1479 19.8598 17.0121 20.1956 16.7704 20.4484C16.5287 20.7013 16.1994 20.8521 15.85 20.87H15.74C15.5632 20.8767 15.3868 20.8483 15.221 20.7864C15.0552 20.7246 14.9034 20.6305 14.7741 20.5096C14.6449 20.3888 14.5409 20.2435 14.4681 20.0822C14.3953 19.921 14.3552 19.7469 14.35 19.57V16.81C14.3335 16.6497 14.3498 16.4877 14.3978 16.3338C14.4458 16.18 14.5245 16.0375 14.6293 15.915C14.734 15.7925 14.8625 15.6925 15.0071 15.6212C15.1516 15.5499 15.3091 15.5086 15.47 15.5C17.04 15.38 19.65 14.8 19.65 12.25C19.65 10.42 18.24 9.18 16.22 9.18C15.4543 9.19264 14.7003 9.37078 14.0099 9.70219C13.3194 10.0336 12.7088 10.5104 12.22 11.1C12.0351 11.2964 11.796 11.4335 11.533 11.4937C11.2701 11.5538 10.9951 11.5345 10.7432 11.438C10.4913 11.3415 10.2738 11.1723 10.1183 10.9518C9.96279 10.7314 9.87637 10.4697 9.87001 10.2C9.87591 9.82301 10.0304 9.46361 10.3 9.2C11.0426 8.34025 11.9648 7.6538 13.0014 7.18903C14.0381 6.72426 15.1641 6.49247 16.3 6.51C20 6.51 22.58 8.81 22.58 12.11C22.58 15.16 20.61 17.2 17.15 17.79Z" fill="#454951"/>
</svg>
